Patient4_TMGait_0pt3_03_right_19_EMG.mot
version=1
nRows=26
nColumns=33
inDegrees=no
endheader
time	1LAddLong	2LGlutMax	3LGlutMed	4LIliopsoas	5LSemiMemb	6LBicFemLong	7LRecFem	8LVastMed	9LVastLat	10LGasMed	11LTibAnt	12lTibPost	13LPeroneusLong	14LSol	15LExtDigLong	16LFlexDigLong	17RAddLong	18RGlutMax	19RGlutMed	20RIliopsoas	21RSemiMemb	22RBicFemLong	23RRecFem	24RVastMed	25RVastLat	26RGasMed	27RTibAnt	28RTibPost	29RPeroneusLong	30RSol	31RExtDigLong	32RFlexDigLong
36.345	0.021973	-0.078125	-0.02533	0.015106	-0.005951	-0.016174	0.033722	0.007172	-0.019226	0.05661	-0.095978	0.008698	-0.14145	-0.010376	0.21027	0.01236	-0.050507	0.010529	0.35629	0.005951	-0.077667	0.13412	-0.29312	0.13382	0.058136	0.008087	-0.19379	0.015106	0.037689	-0.28168	-0.002594	-0.010681
36.346	0.018311	-0.079651	-0.022583	0.01358	-0.009613	-0.019684	0.030823	0.011597	-0.022888	0.05127	0.059357	0.012665	-0.1355	0.097198	0.87753	0.007019	-0.024872	0.022125	-0.008087	0.06012	-0.20248	-0.022278	-0.066833	-0.011902	0.05722	0.011902	-0.56503	0.010986	0.21194	-0.22644	-0.003815	-0.011139
36.347	0.017853	-0.083466	-0.009155	0.006256	-0.00473	-0.041046	0.02533	0.00885	-0.032196	0.020905	0.23148	0.00824	-0.11398	0.11276	0.44266	0.018005	0.011597	-0.045471	-0.076447	0.085449	-0.06134	-0.13458	0.06897	-0.04776	-0.001678	-0.001068	-0.80307	0.000763	0.32944	-0.18829	-0.002289	0.003204
36.348	0.018921	-0.080261	0.010071	-0.01297	-0.013428	-0.020447	0.049744	0.00885	-0.048523	0.041962	0.12207	0.008392	-0.10788	0.057678	0.35294	0.020599	0.034943	-0.006866	-0.11612	0.042725	-0.01358	-0.16953	0.085297	-0.005493	-0.015717	0.004425	-0.88196	-0.005798	-0.17151	-0.14084	-0.006561	-0.004578
36.349	0.014648	-0.10925	0.00885	0.003357	-0.002136	-0.018005	0.045929	0.015564	-0.053101	0.027924	-0.04364	0.00412	-0.098724	0.016479	-0.063019	0.011444	0.03067	0.045471	-0.16083	0.041504	-0.075073	-0.13245	0.14435	-0.016937	-0.049286	0.000763	-0.63904	-0.003204	-0.33463	-0.16769	-0.002747	-0.007935
36.35	0.009003	-0.094147	-0.010834	0.007324	0.001526	0.008392	0.040588	0.006561	-0.069275	0.003815	0.15564	-0.001984	-0.11185	0.050812	-0.040741	0.012512	0.012054	0.00061	-0.1265	0.040283	-0.17929	-0.046082	0.1857	-0.15854	-0.034332	-0.005035	-0.09613	0.004272	-0.10956	-0.21301	-0.009155	-0.005341
36.351	-0.002441	-0.11215	-0.001373	-0.003815	0.013885	0.073853	0.031433	0.010376	-0.069275	0.004883	0.38284	-0.00473	-0.17364	0.1152	-0.13077	0.016632	0.000305	-0.12375	-0.17242	-0.003052	-0.24551	0.069122	0.13947	-0.13779	-0.04364	-0.003662	0.059967	0.001068	0.036163	-0.21378	-0.004883	-0.012817
36.352	-0.002441	-0.089417	-0.021973	0.002747	-0.000763	0.058899	0.00946	0.006104	-0.053101	0.024109	0.34286	0.013275	-0.17487	0.088043	0.041962	0.020142	-0.043335	-0.19073	-0.15152	-0.059967	-0.019989	0.21851	-0.022888	0.038605	-0.009155	0.002594	0.010529	-0.002747	0.14481	-0.16876	-0.001068	-0.013428
36.353	0.000153	-0.10559	-0.032806	0.004425	0.00061	-0.011749	0.016174	0.005798	-0.047607	0.037231	0.10986	-0.001678	-0.10101	0.067291	0.12466	0.018921	-0.029755	-0.16953	0.08316	-0.063019	0.15442	0.2478	-0.07843	0.19348	0.073242	-0.001831	-0.028687	-0.001373	0.11734	-0.076141	-0.005493	-0.013733
36.354	0.000458	-0.12177	-0.012817	0.001068	0.003662	0.011597	0.016327	0.010986	-0.039063	0.028839	0.018921	-0.00351	-0.079041	0.019073	0.59357	0.024719	0.000763	-0.18204	0.044708	-0.049286	-0.024414	0.2626	-0.061798	0.075684	0.053864	-0.006561	0.095215	-0.002899	0.06134	0.062408	-0.005188	-0.018921
36.355	-0.011749	-0.11749	-0.042114	0.003815	-0.002747	0.043182	0.013885	0.008087	-0.019531	-0.014496	-0.015564	-0.009613	0.089111	0.067139	0.91827	0.022278	0.013275	-0.16571	0.12344	-0.043793	-0.121	0.30365	-0.13977	0.061798	0.071716	-0.011292	0.41748	0.001221	0.001984	0.099335	0.001831	-0.027924
36.356	-0.007172	-0.12177	-0.029144	0.009155	-0.015564	0.011749	0.014343	0.007019	0.000305	-0.021057	-0.17899	-0.000763	0.057373	0.031891	-0.42328	0.012817	-0.006866	-0.21744	0.05127	-0.032959	-0.050659	0.27008	-0.088806	0.097351	0.073547	-0.006866	0.29236	-0.008545	0.027771	0.021515	-0.006561	-0.016327
36.357	0.00061	-0.092773	0.000305	0.018005	-0.042114	-0.00885	-0.000458	0.009766	0.022736	-0.009308	-0.26718	-0.001678	-0.015869	0.04364	-0.1091	0.000763	0.00824	-0.23727	0.17456	-0.017853	-0.062561	0.19852	-0.12924	-0.028687	0.086365	-0.00946	-0.047913	-0.008087	0.071259	-0.018005	-0.006104	-0.017395
36.358	-0.00061	-0.091553	0.008698	0.006866	-0.044556	-0.067444	-0.023804	0.002136	0.044708	-0.018768	-0.16693	-0.001678	-0.088806	0.096741	-1.1198	0.003204	0.000458	-0.38147	-0.121	-0.060577	-0.049896	0.12756	-0.074921	-0.02243	0.091705	-0.00946	-0.21332	-0.010223	0.052948	-0.044403	-0.007172	-0.014038
36.359	0.005188	-0.11658	0.006409	0.007172	-0.023193	-0.18219	-0.033112	0.005493	0.061493	0.017395	-0.22568	0.000458	-0.13107	-0.020599	-0.91354	-0.018616	0.009308	-0.56961	-0.24277	-0.093536	-0.031891	0.037689	0.055237	-0.010071	0.042572	-0.012512	-0.75165	-0.010529	0.039215	-0.13702	-0.003967	-0.017395
36.36	0.001984	-0.13534	-0.00824	0.003662	0.021973	-0.25116	-0.001526	0.000305	0.050049	0.022125	-0.24765	0.012054	-0.11597	-0.056152	-0.73395	-0.016479	0.02533	-0.76797	-0.24857	-0.009155	-0.012817	-0.13977	0.11292	-0.011139	0.005493	-0.018311	-0.59235	-0.004578	-0.096436	-0.19089	-0.005951	-0.007019
36.361	0.000305	-0.11841	-0.027618	-0.000763	0.051422	-0.2739	-0.005188	0.009308	0.029449	0.024567	-0.19806	0	-0.083313	-0.16708	-0.2507	-0.009613	0.052795	-0.82581	-0.24521	0.062408	0	-0.18646	0.1268	-0.04303	-0.033722	-0.006561	-0.12375	-0.003967	-0.12421	-0.057831	-0.002899	0.002441
36.362	-0.009308	-0.12405	-0.026245	0.008392	0.071716	-0.16144	-0.008392	0.003357	0.041504	0.023651	-0.17105	0.012054	-0.098114	-0.23056	0.20157	0.004883	0.057373	-0.78247	0.05661	0.13855	0.080872	-0.31097	0.10452	-0.028381	-0.064697	0.001526	0.41245	-0.003052	0.00351	0.072174	-0.002441	-0.006409
36.363	-0.018005	-0.14999	-0.01236	-0.003815	0.067596	0.041962	0.020142	0.011902	0.051575	0.031891	-0.098267	0.007172	-0.13031	-0.22324	0.35523	0.011444	0.053558	-0.88287	0.052948	0.1712	0.075226	-0.34714	0.026703	-0.000763	-0.044403	0.002747	0.84274	-0.005035	0.061035	-0.061798	-0.000916	0.002594
36.364	-0.023804	-0.14175	-0.016479	0.005798	0.028839	0.1239	0.010834	0.000916	0.056458	0.033722	-0.053406	0.010681	-0.12299	-0.1889	0.33447	-0.005035	0.04303	-0.87799	0.40573	0.18326	0.11231	-0.28625	0.047302	-0.030365	0.007324	0.002747	0.69031	-0.00351	0.025787	-0.16968	-0.003662	0.002441
36.365	-0.02533	-0.13519	-0.023041	0.011902	0.027161	0.073853	-0.008087	-0.000458	0.077667	0.026245	-0.056	0.011902	-0.10071	-0.15396	0.37506	0.00946	0.023346	-0.89676	0.7135	0.041046	0.19333	-0.25757	0.021362	-0.16251	0.32806	-0.003662	0.45532	-0.004272	-0.065155	-0.11261	-0.004578	-0.001831
36.366	-0.009613	-0.13001	-0.015106	0.012207	0.027618	0.04364	0.002136	0.004578	0.066681	0.012817	-0.074158	0.021515	-0.057831	-0.079193	0.29327	0.005493	0.050507	-0.87631	0.98465	0.000916	-0.042572	-0.1648	-0.22171	-0.1535	0.56274	-0.001678	-0.1915	-0.00412	0.01358	0.11688	-0.012817	-0.002747
36.367	-0.018158	-0.11505	0.007629	0.00473	0.002441	0.079193	0.003204	0.008087	0.078888	0.004883	-0.047607	0.010223	-0.071259	-0.085754	0.11993	0.021667	0.050201	-0.96603	0.12466	-0.027313	-0.20462	0.029297	-0.36774	-0.021362	0.54092	0.002747	-0.68344	-0.002136	0.20203	0.11551	-0.007782	0.007629
36.368	-0.010529	-0.10742	-0.001984	-0.009003	0.010071	0.046692	0.002441	-0.001526	0.075531	0.010071	-0.023651	0.014648	-0.060883	-0.093384	0.028839	0.019836	-0.002899	-0.9494	-0.33661	0.0383	-0.48096	0.12054	-0.14511	0.073547	0.34241	0.003052	-0.86517	-0.007782	0.25787	0.094299	-0.004425	-0.004578
36.369	-0.010376	-0.083618	-0.00412	0.007324	-0.006714	0.003967	0.007629	-0.000458	0.072937	0.005951	0.018158	0.008087	-0.04303	-0.082397	-0.014191	0.013123	-0.089874	-0.90988	-0.18036	0.019989	-0.32974	0.21316	-0.14313	0.35217	0.13794	-0.010529	-0.43182	-0.008545	0.14175	0.12878	-0.006714	-0.002136
36.37	-0.002594	-0.1152	0.011597	-0.008087	-0.006256	0.001831	0.00351	0.004272	0.067902	0.025482	0.063934	0.011749	-0.084076	-0.034027	0.16251	0.003815	-0.099792	-0.9285	0.080261	-0.0354	0.011139	0.14969	-0.1767	0.30334	0.011292	-0.005035	-0.27771	-0.008087	0.11856	0.26718	-0.00412	-0.014191
